<?xml version="1.0" standalone="no"?>
<!DOCTYPE svg PUBLIC "-//W3C//DTD SVG 20010904//EN"
 "http://www.w3.org/TR/2001/REC-SVG-20010904/DTD/svg10.dtd">
<svg version="1.0" xmlns="http://www.w3.org/2000/svg"
 width="512.000000pt" height="512.000000pt" viewBox="0 0 512.000000 512.000000"
 preserveAspectRatio="xMidYMid meet">

<g transform="translate(0.000000,512.000000) scale(0.100000,-0.100000)"
fill="#fff" stroke="none">
<path d="M4116 4774 c-44 -8 -126 -30 -182 -49 -500 -167 -862 -558 -980
-1059 -8 -32 -13 -61 -10 -63 2 -2 27 7 55 21 182 93 335 107 461 44 171 -85
232 -316 155 -583 -62 -213 -397 -767 -588 -971 -140 -149 -212 -178 -280
-110 -78 78 -161 299 -277 741 -81 309 -101 403 -175 830 -84 483 -133 670
-226 861 -122 248 -292 353 -511 315 -289 -50 -650 -277 -1079 -677 -144 -134
-426 -426 -464 -481 -11 -16 -1 -34 82 -143 52 -69 98 -129 103 -133 4 -5 43
15 86 43 204 138 378 191 461 140 74 -44 148 -252 532 -1490 339 -1094 371
-1175 544 -1379 114 -134 286 -249 427 -286 66 -18 203 -19 268 -4 189 45 571
333 1005 758 455 447 806 888 1090 1374 207 352 349 695 437 1052 83 337 90
554 25 770 -68 226 -245 395 -485 466 -99 28 -355 36 -474 13z"/>
</g>
</svg>
